<svg xmlns="http://www.w3.org/2000/svg" xmlns:xlink="http://www.w3.org/1999/xlink" viewBox="0 0 114 36" fill="#fff" fill-rule="evenodd" stroke="#000" stroke-linecap="round" stroke-linejoin="round"><use xlink:href="#A" x=".5" y=".5"/><symbol id="A" overflow="visible"><g stroke="none" fill-rule="nonzero"><path d="M17.223 23.083c3.23 0 5.98-2.63 5.98-5.98 0-3.23-2.63-5.98-5.98-5.98-3.23 0-5.98 2.63-5.98 5.98 0 3.23 2.75 5.98 5.98 5.98zm0 5.502a11.36 11.36 0 0 0 11.363-11.362c0-6.22-5.144-11.362-11.362-11.362S5.86 11.003 5.86 17.223s5.132 11.362 11.362 11.362zM0 17.223C0 7.653 7.774 0 17.223 0s17.223 7.773 17.223 17.223-7.773 17.223-17.223 17.223A17.23 17.23 0 0 1 0 17.223z" fill="#da2032"/><path d="M44.585 12.623v12.395h-3.732V12.623h-4.256V9.487h12.32v3.136zm22.775 0h-3.435v3.136h3.06c1.12 0 1.867-.448 1.867-1.568.075-1.12-.673-1.568-1.494-1.568zm-7.094-3.136h7.243c4.107 0 4.704 2.837 4.704 4.48 0 2.4-2.016 3.584-2.24 3.66 0 0 1.867.672 1.867 2.688v2.912c0 1.12.672 1.493.82 1.792h-2.987c-1.42-.15-1.344-1.27-1.344-1.867v-2.53c-.075-.598-.224-1.27-1.493-1.27H63.85v5.675h-3.5V9.498zm37.857 5.906h-6.347v-2.77h7.467V9.487H88.118v15.53h11.126V21.88h-7.467v-3.5h6.347zm9.708 9.634V12.623h4.555V9.487h-12.62v3.136h4.406v12.395zM52.723 15.02l-1.27 4.032h2.688zm-2.1-5.525h4.032l5.45 15.457h-3.872l-1.12-3.2h-4.555l-1.12 3.2H45.63zm36.216 6.87h-6.646v2.987h3.2c0 .598.075 1.195-.672 2.1-.3.3-1.12.97-2.315.97-1.045 0-1.792-.3-2.4-.82-1.42-1.195-1.792-3.36-1.792-4.63 0-1.493.598-5.078 4.107-5.227 0 0 2.464-.15 3.06 2.763h3.36c-.075-1.493-1.792-5.6-6.347-5.6-1.568 0-3.584.448-5.302 2.165-1.195 1.195-2.315 3.286-2.315 6.123 0 3.136 1.12 5.152 2.165 6.273 1.867 1.942 3.733 2.1 4.704 2.1.747 0 2.24-.15 4.107-1.42l.448.896h2.54z" fill="#000"/></g></symbol></svg>