<svg xmlns="http://www.w3.org/2000/svg" xmlns:xlink="http://www.w3.org/1999/xlink" viewBox="0 0 97 44" fill="#fff" fill-rule="evenodd" stroke="#000" stroke-linecap="round" stroke-linejoin="round"><use xlink:href="#A" x=".5" y=".5"/><symbol id="A" overflow="visible"><g stroke="none" fill-rule="nonzero"><path d="M15.602 18.188v-.55c-.078-1.568-.157-2.665-.392-3.606-.862-4.076-3.528-6.35-7.37-6.35-4.704 0-7.84 3.606-7.84 9.015 0 2.665.784 5.017 2.273 6.664 1.4 1.568 3.293 2.273 5.723 2.273s4.4-.784 5.8-2.273c.706-.784 1.098-1.4 1.646-2.822l-4.312-1.333c-.157.706-.392 1.02-.706 1.4-.627.706-1.5 1.02-2.5 1.02-1.96 0-3.136-1.176-3.37-3.37h11.058zM4.627 14.425c.392-1.803 1.5-2.665 3.214-2.665s2.744.94 3.136 2.665zm22.5-.314l-3.37.157c-2.117.235-3.763.784-4.94 1.803-1.098.94-1.725 2.352-1.725 4.076 0 1.568.47 2.9 1.333 3.763.94 1.02 2.273 1.568 4.076 1.568 1.96 0 3.293-.47 4.547-1.646v1.254h4.547c-.157-1.254-.157-2.273-.157-3.998v-7.526c0-2.5-.706-4.076-2.195-5.017-.94-.55-2.665-.94-4.4-.94-2.273 0-4.076.55-5.33 1.646-1.02.862-1.5 1.725-2.038 3.37l4.547.862c.392-1.333 1.176-1.96 2.665-1.96 1.568 0 2.273.627 2.273 1.96zm0 4.4c0 .862-.314 1.646-.862 2.195-.627.627-1.725 1.098-2.665 1.098-1.254 0-1.96-.55-1.96-1.646 0-.784.55-1.5 1.333-1.88.94-.392 2.038-.55 4.076-.55v.784zM46.647.088c-.784.078-1.333.078-3.37.078h-5.255c-1.5 0-2.5-.078-3.763-.157v4.86c1.176-.157 2.117-.157 3.763-.157h2.352c-.235.235-.392.47-.47.55l-3.998 5.33-2.117 2.5v4.233c.784-.078 1.333-.078 3.37-.078h6.193l3.763.157v-5.017c-1.098.157-2.195.157-3.763.157h-3.45c.235-.235.235-.314.47-.55l4.155-5.4 2.12-2.586zm7.918 24.773l-.55 1.176c-.392.862-1.02 1.333-1.96 1.333-.627 0-1.098-.157-1.88-.627l-.55 4.468c1.333.314 2.273.47 3.293.47 2.744 0 4.468-1.176 5.488-3.84l5.566-14.816 1.5-3.763H60.2c-.157.94-.392 1.803-1.02 3.763l-2.195 6.35-2.195-6.507c-.55-1.5-.784-2.744-.94-3.606h-5.252l1.5 3.763z" fill="#427fac"/><path d="M77.77 25.478c4.312 0 6.82-2.587 6.82-6.977 0-2.038-.55-3.606-1.646-4.86-.706-.784-1.333-1.098-2.587-1.5 1.02-.47 1.5-.784 2.038-1.333.94-1.02 1.4-2.5 1.4-4.312 0-3.998-2.352-6.428-6.35-6.428h-6.507c-2.038 0-2.352 0-3.606-.078a39.07 39.07 0 0 1 .235 4.39v16.698c0 2.117-.078 3.136-.235 4.468l3.685-.078zm-5.4-15.522V5.174h4.312c1.4 0 2.195.862 2.195 2.352s-.784 2.43-2.117 2.43zm0 4.86h4.547c1.568 0 2.5 1.02 2.5 2.822s-.94 2.822-2.5 2.822H72.36zM87.802.078c.157 1.333.235 2.273.235 4.547v16.463c0 2.038-.078 3.37-.235 4.547h5.958c-.157-1.254-.235-2.43-.235-4.547V4.625c0-2.273.078-3.293.235-4.547z" fill="#b53838"/><path d="M2.824 31.514h10.828v10.584H2.824zm16.15 0h10.74v10.504H18.972zm16.228-8.23h10.74v18.734h-10.74zM51.9 39.354h10.74v2.822H51.9z" fill="#427fac"/><path d="M68.752 34.493h10.74v7.604h-10.74zm16.306-4.94h10.74v12.465h-10.74z" fill="#b53838"/></g></symbol></svg>