<svg xmlns="http://www.w3.org/2000/svg" xmlns:xlink="http://www.w3.org/1999/xlink" viewBox="0 0 102 35" fill="#fff" fill-rule="evenodd" stroke="#000" stroke-linecap="round" stroke-linejoin="round"><use xlink:href="#A" x=".5" y=".5"/><symbol id="A" overflow="visible"><g stroke="none"><g fill="#f36" fill-rule="nonzero"><path d="M30.49.001H3.035C1.36.001 0 1.36 0 3.036v27.44a3.04 3.04 0 0 0 3.035 3.048h27.44c1.676 0 3.035-1.36 3.035-3.035V3.035C33.523 1.36 32.164 0 30.488 0z"/><path d="M47.073 26.02h3.213V12.027h-3.213zm11.72-8.267c-1.638-.533-3.162-.952-3.162-1.968v-.05c0-.825.7-1.4 1.968-1.4.6 0 1.283.14 1.994.38 0 0 .013 0 .025.013l.178.063c.508.165 1.88.38 3.035-1.422-1.498-.965-3.403-1.575-5.156-1.575-2.78 0-5 1.613-5 4.267v.05c0 2.68 2.3 3.53 4.38 4.114 1.638.508 3.124.876 3.124 1.956v.05c0 .927-.8 1.5-2.17 1.5-.914 0-1.917-.24-2.92-.7-.292-.127-1.8-.635-3.06 1.194 1.74 1.36 3.937 2.07 5.905 2.07 2.92 0 5.194-1.46 5.194-4.406v-.038c0-2.527-2.298-3.454-4.343-4.1zm-20.47 4.56l-3.77-10.286h-3.44l5.752 14.108h2.895l5.727-14.108H42.12zm39.72-10.578c-4.292 0-7.48 3.314-7.48 7.34 0 4 3.15 7.264 7.43 7.264 4.317 0 7.505-3.314 7.505-7.314 0-4.025-3.162-7.3-7.454-7.3zm0 11.822c-2.5 0-4.267-2.044-4.267-4.533 0-2.464 1.638-4.483 4.216-4.483 2.514 0 4.292 2.044 4.292 4.533 0 2.476-1.65 4.483-4.24 4.483zM95.01 11.735c-2.17 0-3.48 1.143-4.38 2.464v-2.17h-3.213v14.006h3.213v-7.9c0-2.17 1.295-3.48 3.162-3.48 1.905 0 2.997 1.244 2.997 3.416v7.95H100v-8.916c0-3.25-1.83-5.37-5-5.37zM65.257 26.02h3.212V12.027h-3.213z"/></g><path d="M11.2 10.555c1.117 0 2.044-.876 2.044-2.02s-.94-2.02-2.044-2.02c-1.117 0-2.044.876-2.044 2.02s.94 2.02 2.044 2.02zM6.96 21.36c-.114.508-.178 1.067-.178 1.5 0 1.778.965 2.96 3 2.96 1.702 0 3.073-1.003 4.063-2.64l-.6 2.425h3.378l1.93-7.733c.483-1.956 1.4-2.97 2.832-2.97 1.117 0 1.803.698 1.803 1.84a3.36 3.36 0 0 1-.152 1.08l-1 3.556a5.3 5.3 0 0 0-.216 1.511c0 1.7 1 2.92 3.073 2.92 1.778 0 3.187-1.143 3.975-3.886l-1.32-.508c-.66 1.84-1.232 2.17-1.7 2.17s-.698-.305-.698-.902c0-.267.063-.57.152-.94l.965-3.467c.24-.813.33-1.537.33-2.197 0-2.6-1.562-3.937-3.467-3.937-1.778 0-3.58 1.6-4.483 3.3l.66-3.022H14.16l-.724 2.667h2.413l-1.486 5.943c-1.168 2.6-3.302 2.63-3.568 2.578-.444-.102-.724-.267-.724-.838 0-.33.063-.8.216-1.384l2.26-8.965H6.82l-.724 2.667H8.47z" fill-rule="nonzero"/></g></symbol></svg>