<svg xmlns="http://www.w3.org/2000/svg" xmlns:xlink="http://www.w3.org/1999/xlink" viewBox="0 0 113 36" fill="#fff" fill-rule="evenodd" stroke="#000" stroke-linecap="round" stroke-linejoin="round"><use xlink:href="#A" x=".5" y=".5"/><symbol id="A" overflow="visible"><path d="M58.786 8.75c0 1.25-1.014 2.264-2.264 2.264s-2.264-1.014-2.264-2.264 1.014-2.264 2.264-2.264c.6-.002 1.178.236 1.603.66s.663 1.002.66 1.603zm-9.34 4.55v.56c-.865-.936-2.096-1.445-3.37-1.395a6.67 6.67 0 0 0-6.739 6.9 6.67 6.67 0 0 0 6.732 6.907 4.23 4.23 0 0 0 3.369-1.429v.593a.48.48 0 0 0 .14.345c.09.09.216.142.345.14h2.824v-13.13h-2.8a.5.5 0 0 0-.485.485zm0 8.396c-.656.904-1.707 1.436-2.824 1.43-2.23 0-3.935-1.395-3.935-3.76s1.705-3.76 3.935-3.76a3.56 3.56 0 0 1 2.824 1.429v4.67zm5.4-8.882h3.37v13.1h-3.37V12.793zm49.967-.35a4.35 4.35 0 0 0-3.369 1.395V6.508h-3.37v19.405h2.823a.5.5 0 0 0 .485-.485v-.593c.854.95 2.085 1.474 3.362 1.43a6.69 6.69 0 0 0 6.739-6.9c.06-1.82-.627-3.584-1.9-4.886s-3.02-2.03-4.84-2.014zm-.57 10.628a3.41 3.41 0 0 1-2.824-1.429v-4.67a3.78 3.78 0 0 1 2.824-1.429c2.23 0 3.935 1.395 3.935 3.76s-1.705 3.76-3.935 3.76zm-7.878-4.946v7.803h-3.37v-7.413c0-2.163-.674-3.032-2.58-3.032a3.74 3.74 0 0 0-2.695 1.287v9.124h-3.37V12.793H87a.5.5 0 0 1 .485.485v.56c.94-.936 2.225-1.44 3.55-1.395a5.39 5.39 0 0 1 3.659 1.253c1.186.977 1.637 2.23 1.637 4.427zm-20.1-5.68a4.35 4.35 0 0 0-3.369 1.395V6.5h-3.37v19.403h2.824a.5.5 0 0 0 .485-.485v-.593c.855.953 2.1 1.476 3.37 1.43a6.69 6.69 0 0 0 6.739-6.9c.07-1.823-.612-3.594-1.886-4.9s-3.03-2.028-4.853-2zm-.562 10.626a3.41 3.41 0 0 1-2.824-1.429v-4.67a3.78 3.78 0 0 1 2.824-1.429c2.23 0 3.935 1.395 3.935 3.76s-1.705 3.76-3.935 3.76zm-9.08-10.63c.518-.017 1.035.043 1.536.175v3.1s-2.8-.923-4.528 1.044v9.165h-3.37V12.793h2.824a.5.5 0 0 1 .485.485v.56c.8-.83 1.882-1.328 3.032-1.395zm-34.74 12.265l-.526-1.253-.802-1.78-.034-.034C28.085 16.35 25.52 11.1 22.826 5.913l-.108-.2-.83-1.67c-.343-.684-.764-1.326-1.253-1.914C19.556.77 17.9-.016 16.174 0a5.85 5.85 0 0 0-4.461 2.089 12.02 12.02 0 0 0-1.253 1.914L9.518 5.85C6.822 11.08 4.22 16.37 1.816 21.597l-.034.067c-.2.573-.485 1.16-.768 1.786q-.263.573-.526 1.253a7.83 7.83 0 0 0-.418 3.76c.382 2.592 2.103 4.8 4.528 5.782a7.16 7.16 0 0 0 2.824.559c.302-.005.604-.027.903-.067 1.23-.157 2.414-.56 3.484-1.186a17.64 17.64 0 0 0 4.319-3.625c1.244 1.424 2.7 2.647 4.32 3.625a9.2 9.2 0 0 0 3.484 1.186c.3.04.6.062.903.067a7.04 7.04 0 0 0 2.824-.559c2.425-.992 4.147-3.2 4.528-5.782.257-1.247.147-2.54-.317-3.726zM16.177 26.54c-1.88-2.372-3.1-4.596-3.518-6.483a5.62 5.62 0 0 1-.108-2.123 3.37 3.37 0 0 1 .559-1.462 3.7 3.7 0 0 1 3.066-1.536c1.216-.047 2.372.53 3.066 1.53a3.37 3.37 0 0 1 .559 1.462 5.6 5.6 0 0 1-.108 2.123c-.418 1.846-1.637 4.043-3.518 6.483zm13.902 1.637c-.267 1.815-1.474 3.353-3.174 4.043-.833.352-1.743.485-2.642.384-.935-.116-1.837-.423-2.648-.903-1.495-.903-2.835-2.04-3.97-3.37 2.298-2.824 3.693-5.4 4.218-7.702.227-.97.286-1.974.175-2.965-.13-.852-.452-1.664-.943-2.372a5.87 5.87 0 0 0-4.919-2.5c-1.942-.025-3.775.898-4.912 2.473-.49.708-.814 1.52-.943 2.372-.147 1-.088 2 .175 2.965.526 2.298 1.954 4.912 4.218 7.736-1.126 1.337-2.467 2.475-3.97 3.37-.81.5-1.715.807-2.655.93-.898.1-1.807-.02-2.648-.35-1.7-.7-2.907-2.228-3.174-4.043a5.77 5.77 0 0 1 .317-2.695c.108-.35.276-.674.45-1.112.243-.56.526-1.152.802-1.745l.034-.067a372.29 372.29 0 0 1 7.67-15.647l.1-.25.836-1.604c.27-.553.608-1.07 1.004-1.543a3.66 3.66 0 0 1 5.573 0 7.65 7.65 0 0 1 .95 1.53l.836 1.604.1.2c2.648 5.196 5.236 10.485 7.635 15.68v.034c.276.56.526 1.186.802 1.745.175.418.35.768.45 1.112.29.867.372 1.8.243 2.695z" stroke="none" fill="#ff5a5f"/></symbol></svg>