<svg xmlns="http://www.w3.org/2000/svg" xmlns:xlink="http://www.w3.org/1999/xlink" viewBox="0 0 107 10" fill="#fff" fill-rule="evenodd" stroke="#000" stroke-linecap="round" stroke-linejoin="round"><use xlink:href="#A" x=".5" y=".5"/><symbol id="A" overflow="visible"><g stroke="none" fill-rule="nonzero"><path d="M41.057 3.963c0-1.46-1.057-2.767-3-2.767-1.92 0-2.975 1.307-2.975 2.767v.18c0 1.46 1.057 2.78 2.975 2.78 1.933 0 3-1.32 3-2.78zm-3 4.157c-2.67 0-4.407-1.933-4.407-3.935v-.25C33.65 1.89 35.388 0 38.057 0c2.683 0 4.42 1.9 4.42 3.935v.25c0 2.002-1.738 3.935-4.42 3.935z" fill="#2f99ce"/><path d="M4.63 1.752L3 4.922h3.337zm3.253 6.076l-1-1.877H2.46l-.973 1.877H0L4.074.278h1.182L9.4 7.828zm7.953.292c-2.7 0-3.963-1.474-3.963-3.434V.28h1.404V4.7c0 1.404.918 2.225 2.656 2.225 1.794 0 2.53-.82 2.53-2.225V.28h1.418v4.407c0 1.863-1.2 3.434-4.046 3.434zm11.93-6.66v6.368h-1.418V1.46h-3.295V.278h8.008V1.46zm27.35 6.368v-5.98l-.375.653-3.156 5.325H50.9L47.77 2.5l-.375-.653v5.98H46V.277h1.96l2.975 5.172.348.64.348-.64L54.58.277h1.947v7.55zm8.868-6.076l-1.64 3.17h3.337zm3.253 6.076l-1-1.877H61.8l-.96 1.877h-1.488l4.074-7.55H64.6l4.143 7.55zm7.23-6.368v6.368H73.05V1.46h-3.295V.278h8.008V1.46zm10.387 0v6.368h-1.418V1.46H80.14V.278h8.008V1.46zm6.786 6.368V.988c.57 0 .793-.306.793-.7h.598v7.55zm12.484-5.423c-.68-.626-1.682-1.2-3.03-1.2-2.016 0-3.142 1.376-3.142 2.822v.14c0 1.432 1.14 2.767 3.253 2.767 1.25 0 2.294-.598 2.948-1.2l.848.9c-.82.82-2.225 1.515-3.893 1.515-2.85 0-4.588-1.863-4.588-3.907v-.25c0-2.03 1.9-3.963 4.658-3.963 1.6 0 3.045.667 3.823 1.515zM39 2.628a.55.55 0 0 1 .167.765l-1.293 2.002c-.167.25-.5.334-.765.167-.25-.167-.32-.514-.153-.765l1.293-2.002c.167-.25.5-.334.75-.167z" fill="#050604"/></g></symbol></svg>